<?xml version="1.0" encoding="utf-8"?>
<!-- Generator: Adobe Illustrator 24.0.1, SVG Export Plug-In . SVG Version: 6.00 Build 0)  -->
<svg version="1.1" id="Layer_1" xmlns="http://www.w3.org/2000/svg" xmlns:xlink="http://www.w3.org/1999/xlink" x="0px" y="0px"
	 viewBox="0 0 32 32" style="enable-background:new 0 0 32 32;" xml:space="preserve">
<style type="text/css">
	.st0{fill:#F0580A;}
</style>
<g transform="translate(0.000000,260.000000) scale(0.100000,-0.100000)">
	<path class="st0" d="M67.9,2579.7c0-0.2-1-5.2-2.4-11.2c-1.3-6-2.7-13-2.9-15.6c-0.3-2.5-0.7-5.2-1-5.9c-0.9-2.8-2.2-23.3-2.2-35.6
		c0-11.4,1-27.1,2.2-34.1c0.2-1.5,0.7-5.2,1-8.2c0.5-2.9,2.1-10.7,3.7-17.3c10.8-43.8,29.7-78.5,58.9-107.8c4.5-4.6,7.7-8.4,7.1-8.4
		c-1.6,0-19.7,7.1-28.7,11.3c-31.1,14.3-62.1,41.3-83.1,72.4c-3.1,4.7-6,8.5-6.2,8.5c-0.2,0,1.3-3.9,3.5-8.8
		c14.4-31.6,38.2-55.6,76.1-76.8c16.1-9,39.4-18,52.1-19.8c2.4-0.5,9.3-3.3,15.4-6.5c13.4-6.9,28.1-12,41.3-14.2
		c11.3-2,34.2-2.5,35.2-0.9c0.3,0.6-1,1-3.1,1.2c-2,0-5,0.3-6.6,0.6c-1.6,0.3-5.8,1.3-9.5,1.8c-11.4,2.1-33.2,10.5-33.2,12.9
		c0,0.5,3.2,0.9,7.3,1c19.6,0.2,49.6,6.7,66.5,14.4c18.1,8.3,42.2,22.7,46.2,27.7c0.9,1.2-0.7,0.5-3.6-1.4
		c-8.3-5.6-23.9-13.6-35.2-18.1c-24.9-9.9-45.4-13.8-72-13.9c-28.4,0-27.9-0.1-38,7.5c-24.8,18.8-47.7,48-62.9,80
		c-13.5,28.5-24.3,65.5-26.5,91.1c-0.3,4.5-0.9,8.4-1.3,8.9c-0.6,1.2-0.6,43.3,0,44.5c0.3,0.5,0.9,4.1,1.3,8.3
		c0.5,4.1,1.2,8.6,1.5,10.1c0.3,1.4,0.2,2.5-0.1,2.5S67.9,2579.9,67.9,2579.7z"/>
</g>
</svg>
